<mxfile host="app.diagrams.net" agent="Mozilla/5.0 (Windows NT 10.0; Win64; x64) AppleWebKit/537.36 (KHTML, like Gecko) Chrome/135.0.0.0 Safari/537.36 Edg/135.0.0.0" version="26.2.14">
  <diagram id="g4P0fSuvvrfyhLx15nnq" name="P치gina-1">
    <mxGraphModel dx="823" dy="491" grid="1" gridSize="10" guides="1" tooltips="1" connect="1" arrows="1" fold="1" page="1" pageScale="1" pageWidth="827" pageHeight="1169" math="0" shadow="0">
      <root>
        <mxCell id="0" />
        <mxCell id="1" parent="0" />
        <mxCell id="uHSOwPuvrwYOZil3UeDL-1" value="" style="verticalLabelPosition=bottom;verticalAlign=top;html=1;shadow=0;dashed=0;strokeWidth=1;shape=mxgraph.android.phone2;strokeColor=#c0c0c0;fillColor=#000000;" parent="1" vertex="1">
          <mxGeometry x="313" y="90" width="200" height="390" as="geometry" />
        </mxCell>
        <mxCell id="uHSOwPuvrwYOZil3UeDL-3" value="" style="html=1;verticalLabelPosition=bottom;align=center;labelBackgroundColor=#ffffff;verticalAlign=top;strokeWidth=2;strokeColor=#0080F0;shadow=0;dashed=0;shape=mxgraph.ios7.icons.user;" parent="1" vertex="1">
          <mxGeometry x="372" y="150" width="82" height="80" as="geometry" />
        </mxCell>
        <mxCell id="uHSOwPuvrwYOZil3UeDL-4" value="" style="shape=mxgraph.sysml.x;" parent="1" vertex="1">
          <mxGeometry x="480" y="135" width="15" height="15" as="geometry" />
        </mxCell>
        <mxCell id="uHSOwPuvrwYOZil3UeDL-5" value="Nombre" style="rounded=1;whiteSpace=wrap;html=1;" parent="1" vertex="1">
          <mxGeometry x="378" y="230" width="70" height="20" as="geometry" />
        </mxCell>
        <mxCell id="uHSOwPuvrwYOZil3UeDL-6" value="" style="shape=image;html=1;verticalAlign=top;verticalLabelPosition=bottom;labelBackgroundColor=#ffffff;imageAspect=0;aspect=fixed;image=https://cdn1.iconfinder.com/data/icons/material-core/18/create-128.png" parent="1" vertex="1">
          <mxGeometry x="452" y="230" width="20" height="20" as="geometry" />
        </mxCell>
        <mxCell id="uHSOwPuvrwYOZil3UeDL-7" value="&lt;span style=&quot;font-size: 12px;&quot;&gt;Cambiar cuenta&lt;/span&gt;" style="strokeWidth=1;shadow=0;dashed=0;align=center;html=1;shape=mxgraph.mockup.buttons.button;strokeColor=#666666;fontColor=#ffffff;mainText=;buttonStyle=round;fontSize=17;fontStyle=1;fillColor=#008cff;whiteSpace=wrap;" parent="1" vertex="1">
          <mxGeometry x="362" y="260" width="102" height="30" as="geometry" />
        </mxCell>
        <mxCell id="uHSOwPuvrwYOZil3UeDL-9" value="Cuenta y Configuraci칩n." style="text;html=1;align=center;verticalAlign=middle;resizable=0;points=[];autosize=1;strokeColor=none;fillColor=none;" parent="1" vertex="1">
          <mxGeometry x="322" y="127.5" width="150" height="30" as="geometry" />
        </mxCell>
        <mxCell id="uHSOwPuvrwYOZil3UeDL-11" value="&lt;font style=&quot;font-size: 12px;&quot;&gt;Cerrar sesi칩n&lt;/font&gt;" style="strokeWidth=1;shadow=0;dashed=0;align=center;html=1;shape=mxgraph.mockup.buttons.button;strokeColor=#666666;fontColor=#ffffff;mainText=;buttonStyle=round;fontSize=17;fontStyle=1;fillColor=#008cff;whiteSpace=wrap;" parent="1" vertex="1">
          <mxGeometry x="362" y="350" width="102" height="30" as="geometry" />
        </mxCell>
        <mxCell id="uHSOwPuvrwYOZil3UeDL-12" value="&lt;span style=&quot;font-size: 12px;&quot;&gt;Eliminar cuenta&lt;/span&gt;" style="strokeWidth=1;shadow=0;dashed=0;align=center;html=1;shape=mxgraph.mockup.buttons.button;strokeColor=#666666;fontColor=#ffffff;mainText=;buttonStyle=round;fontSize=17;fontStyle=1;fillColor=#FF3333;whiteSpace=wrap;" parent="1" vertex="1">
          <mxGeometry x="362" y="390" width="102" height="30" as="geometry" />
        </mxCell>
        <mxCell id="uHSOwPuvrwYOZil3UeDL-13" value="A침adir veterinarios y centros de rescate" style="text;html=1;align=center;verticalAlign=middle;resizable=0;points=[];autosize=1;strokeColor=none;fillColor=none;" parent="1" vertex="1">
          <mxGeometry x="550" y="245" width="230" height="30" as="geometry" />
        </mxCell>
        <mxCell id="ZUqmZZMgzhznN8ApvWug-1" value="&lt;span style=&quot;font-size: 12px;&quot;&gt;Dar de alta como veterinario&lt;/span&gt;" style="strokeWidth=1;shadow=0;dashed=0;align=center;html=1;shape=mxgraph.mockup.buttons.button;strokeColor=#666666;fontColor=#ffffff;mainText=;buttonStyle=round;fontSize=17;fontStyle=1;fillColor=#33FF33;whiteSpace=wrap;" vertex="1" parent="1">
          <mxGeometry x="348" y="300" width="130" height="40" as="geometry" />
        </mxCell>
      </root>
    </mxGraphModel>
  </diagram>
</mxfile>
